<?xml version="1.0" encoding="UTF-8"?>
<!-- Generator: Adobe Illustrator 19.0.0, SVG Export Plug-In . SVG Version: 6.00 Build 0)  -->
<svg version="1.1" xmlns="http://www.w3.org/2000/svg" xmlns:xlink="http://www.w3.org/1999/xlink" x="0px" y="0px" viewBox="0 0 984 846" style="enable-background:new 0 0 984 846;" xml:space="preserve">
<style type="text/css">
	.st0{fill:#3282EB;}
	.st1{fill:#201B5A;}
	.st2{fill:#4EA0F9;}
	.st3{fill:#3B419A;}
	.st4{fill:#FFFFFF;}
	.st5{fill:#EF6191;}
	.st6{fill:#EF6090;}
	.st7{fill:#EF4A84;}
	.st8{fill:#FED0D4;}
	.st9{fill:#5258A6;}
	.st10{fill:#C1C1BF;}
	.st11{fill:#FAFAFA;}
	.st12{fill:#F2BDC3;}
	.st13{opacity:0.5;}
	.st14{fill:#91CCCC;}
	.st15{fill:#5D5D5D;}
	.st16{fill:#007B74;}
	.st17{fill:#D6CBAD;}
	.st18{fill:#42292F;}
	.st19{fill:#2F343B;}
	.st20{opacity:0.9;fill:#588DBB;}
</style>
<g id="Layer_1">
	<g>
		<g>
			<g>
				<g>
					<path class="st0" d="M409.1,55.3c8.4,11.3,3.5,34.1-16.5,45.2c-20,11.1-47.7,6.2-56.1-5.1c-8.4-11.3,11.3-17.1,31.3-28.2       C387.9,56.2,400.7,44,409.1,55.3z"/>
				</g>
				<g>
					<path class="st0" d="M348.4,46.8c3.3,4.4,1.4,13.4-6.5,17.7c-7.9,4.4-18.7,2.4-22-2c-3.3-4.4,4.4-6.7,12.3-11.1       C340.1,47.2,345.1,42.4,348.4,46.8z"/>
				</g>
				<g>
					<path class="st0" d="M270.3,93.8c-3.3-9.7,0-23.9,9.7-26.4c9.7-2.5,22.2,7.7,25.6,17.4c3.3,9.7-0.5,13.3-10.2,15.8       C285.6,103.1,273.7,103.5,270.3,93.8z"/>
				</g>
				<g>
					<path class="st0" d="M222.9,127.4c-1.2-3.4,0-8.3,3.4-9.2c3.4-0.9,7.7,2.7,8.9,6.1c1.2,3.4-0.2,4.6-3.6,5.5       C228.3,130.7,224.1,130.8,222.9,127.4z"/>
				</g>
			</g>
			<g>
				<path class="st0" d="M29.6,637.5c57.8-6.3,115.7-11.7,173.6-16.6c49-4.2,98.2-7.4,147.4-9.7c203.5-9.5,407.6-6.5,610.9,6.2      c6.2-15.6-7.1-75.5-7.1-94.8c-2.3-36.7-15.9-58.7-25-93c-20.5-61.2,22.7-156.6-25-203.1c-22.7-22-63.7-26.9-88.7-41.6      c-40.9-22-40.9-48.9-61.4-88.1c-22.7-44-59.1-58.7-104.6-68.5c-52.3-9.8-72.8,7.3-118.3,36.7c-29.6,19.6-50,9.8-81.9,22      c-25,7.3-40.9,36.7-68.2,41.6H379c-34.1-4.9-75-12.2-109.2-4.9c-38.7,9.8-54.6,51.4-81.9,78.3c-45.5,44-116,58.7-118.3,134.6      c-2.3,61.2-29.6,95.4-43.2,154.1C17.4,525,6.1,598.4,24.2,630.2C25.7,632.8,27.5,635.2,29.6,637.5z"/>
			</g>
		</g>
	</g>
	<g>
		<path class="st1" d="M399.8,111.3v24.7c0,0-46.8,36.7-44.9,36.7c1.9,0,99.3-4.4,99.3-4.4l-41.1-31l-2.5-30.4L399.8,111.3z"/>
		<path class="st2" d="M354.9,172.6L51.4,635.2l97.3-9.3l295.5-18.6c0,0,148.6-47.3,138.5-57.4c-10.1-10.1-128.4-381.8-128.4-381.8    L354.9,172.6z"/>
		<circle class="st3" cx="402.8" cy="181.9" r="15.4"/>
	</g>
	<path class="st1" d="M663.8,375.4l2.2-0.3c15.2,0.1,22.3-18.5,37.5-18.4c11,0.2,22.1,3,33.9,2.4c29.4-1.3,57.2-4.1,86.2,4.5   c50.5,15.1-20.8,54.8-36.9,64.9c-15.7,10.3-26.4,21.3-46.6,22c-14.4,0.7-33.2-5.8-47.1-11.2c-15.8-6-43.9-11.2-53.4-26.1   C627.9,395.4,633.8,376.9,663.8,375.4z"/>
	<path class="st4" d="M623.9,396.9c68,23.8,211.4-18,212.8-18.5l-0.3-1.2c-1.5,0.4-151.1,44.1-216.6,16.7l-0.5,1.1   C620.8,395.8,622.4,396.4,623.9,396.9z"/>
	<path class="st1" d="M479.1,262.2c28.2,3.5,63,24.6,76.8,47.4c9.3,13.5,14.6,20.5,25.9,32.1c12.4,12,12.7,18.5,17,35.4l-0.1,3.8   c15.8,38.8-53.7,14.5-67.8,10.8c-31.6-8.5-71.2-16-86.7-52.1C433.3,312.7,441,257.8,479.1,262.2z"/>
	<path class="st1" d="M692.6,288.4c11.2-6.3,28.4-8,40.6-10.1c18.4-5.1,86.7-24.6,63.2,13.2c-11.7,18.9-130,60.7-132.2,30.4   l-0.2-1.3C672.7,307,678.4,296.2,692.6,288.4z"/>
	<path class="st1" d="M628.6,306.9c15.8-34.1-11.3-62.8-32.7-85.7c-10.1-11.2-45.7-59.5-56.9-23.8c-5.6,16,12.5,33.8,19.5,46.5   c7.8,14.3,10.3,29.2,16.9,43c10.8,20.4,32,33,52.8,21.1"/>
	<path class="st1" d="M676.4,250.7l1.5-0.7c7.3-2.6,103.4-39.3,88.4-11.3c-4.7,9.9-42.6,15.8-52.6,18.7c-15.7,4.7-24.9,5.3-38.6,0.6   C674.8,255.3,671.6,256.1,676.4,250.7z"/>
	<path class="st1" d="M632.5,196.9c14,11.3,20.5,32.8,26.4,48.9l-0.2,0.6c-3.8,15.3-43.7-28.7-46.9-41.4   C609.7,188.9,617.4,185.2,632.5,196.9z"/>
	<path class="st1" d="M677.5,130.8c21.1-5.4,39.9,39.6,42.3,54.5c3.1,20.3-14.7,34.5-33.9,41.9l-0.8,0.4c-18,2-23.4-15.3-25-36.3   C658.8,176.7,660.2,136.2,677.5,130.8z"/>
	<path class="st4" d="M641.1,326.3c16.4,0.8,55.6-6.5,149.2-45.7c2.6-1.1,4.4-1.8,4.7-1.9l-0.4-1.1c-0.3,0.1-1.7,0.7-4.8,2   c-93.4,39.1-132.4,46.4-148.6,45.6L641.1,326.3z"/>
	<path class="st4" d="M639.9,318.8c1.4,0.5,2.3,0.5,2.4,0.5l0-1.2c-0.1,0-13.8-1-30.4-35.5c-0.4-0.7-38.2-71.2-62.1-88.5l-0.7,1   c23.6,17.1,61.3,87.3,61.7,88C623.9,310.4,635.2,317.1,639.9,318.8z"/>
	<path class="st4" d="M663.9,262.1c14.6-7.5,96.9-26.9,97.7-27.1l-0.3-1.2c-3.4,0.8-83.2,19.6-98,27.2L663.9,262.1z"/>
	<path class="st4" d="M663.9,261.9l1.2,0c0-1.3-7.9-15.7-16.4-29c-8.3-13.1-20.1-30.1-29.1-36.6l-0.7,1   C635.5,209.4,663.5,259.9,663.9,261.9z"/>
	<path class="st4" d="M603.5,495.4l1.2,0c0.3-29.6,13.5-89.2,13.6-89.8c9.4-50.4,45.3-140.4,45.7-141.3   c29.3-61.9,28.9-102.3,28.9-102.7l-1.2,0c0,0.4,0.4,40.5-28.8,102.2c-0.4,0.9-36.3,91-45.8,141.5   C617,405.9,603.8,465.7,603.5,495.4z"/>
	<path class="st5" d="M618.5,399.3l0.5-1.1c-1.3-0.6-128.8-62.3-154.5-116.7l-1.1,0.5C489.3,336.8,617.2,398.7,618.5,399.3z"/>
	<path class="st1" d="M158.5,575.8l1.3-0.2c8.8,0,12.9-10.7,21.7-10.7c6.4,0.1,12.8,1.7,19.6,1.4c17-0.7,33.1-2.4,49.9,2.6   c29.2,8.7-12,31.7-21.4,37.6c-9.1,6-15.3,12.3-27,12.8c-8.4,0.4-19.2-3.4-27.3-6.5c-9.1-3.5-25.4-6.5-30.9-15.1   C137.7,587.4,141.1,576.8,158.5,575.8z"/>
	<path class="st4" d="M135.4,588.3c39.4,13.8,122.4-10.4,123.2-10.7l-0.2-0.7c-0.9,0.3-87.5,25.5-125.4,9.7l-0.3,0.6   C133.6,587.7,134.5,588,135.4,588.3z"/>
	<path class="st1" d="M51.5,510.3c16.3,2,36.5,14.3,44.5,27.4c5.4,7.8,8.4,11.8,15,18.6c7.2,7,7.4,10.7,9.9,20.5l0,2.2   c9.2,22.5-31.1,8.4-39.2,6.3c-18.3-4.9-41.2-9.3-50.2-30.2C25,539.6,29.4,507.8,51.5,510.3z"/>
	<path class="st1" d="M175.2,525.5c6.5-3.7,16.4-4.6,23.5-5.8c10.7-2.9,50.2-14.3,36.6,7.6c-6.8,11-75.3,35.1-76.6,17.6l-0.1-0.8   C163.6,536.3,166.9,530,175.2,525.5z"/>
	<path class="st1" d="M138.1,536.2c9.1-19.8-6.5-36.4-18.9-49.6c-5.9-6.5-26.5-34.5-33-13.8c-3.2,9.2,7.2,19.6,11.3,26.9   c4.5,8.3,5.9,16.9,9.8,24.9c6.2,11.8,18.5,19.1,30.6,12.2"/>
	<path class="st1" d="M165.8,503.7l0.9-0.4c4.2-1.5,59.8-22.7,51.2-6.5c-2.7,5.7-24.7,9.1-30.5,10.8c-9.1,2.7-14.4,3.1-22.3,0.3   C164.8,506.3,163,506.8,165.8,503.7z"/>
	<path class="st1" d="M140.4,472.5c8.1,6.5,11.9,19,15.3,28.3l-0.1,0.3c-2.2,8.9-25.3-16.6-27.2-24   C127.2,467.9,131.6,465.8,140.4,472.5z"/>
	<path class="st1" d="M166.4,434.2c12.2-3.1,23.1,22.9,24.5,31.6c1.8,11.7-8.5,20-19.6,24.3l-0.4,0.2c-10.4,1.2-13.6-8.8-14.5-21   C155.6,460.8,156.4,437.4,166.4,434.2z"/>
	<path class="st1" d="M145.3,547.4c9.5,0.5,32.2-3.8,86.4-26.5c1.5-0.6,2.5-1.1,2.7-1.1l-0.2-0.7c-0.2,0.1-1,0.4-2.8,1.1   c-54.1,22.7-76.7,26.9-86.1,26.4L145.3,547.4z"/>
	<path class="st4" d="M144.6,543.1c0.8,0.3,1.3,0.3,1.4,0.3l0-0.7c-0.1,0-8-0.6-17.6-20.5c-0.2-0.4-22.1-41.2-35.9-51.2l-0.4,0.6   c13.7,9.9,35.5,50.6,35.7,51C135.4,538.2,141.9,542.1,144.6,543.1z"/>
	<path class="st4" d="M158.5,510.3c8.4-4.3,56.1-15.6,56.6-15.7l-0.2-0.7c-2,0.5-48.2,11.4-56.7,15.7L158.5,510.3z"/>
	<path class="st4" d="M158.5,510.2l0.7,0c0-0.8-4.6-9.1-9.5-16.8c-4.8-7.6-11.7-17.4-16.9-21.2l-0.4,0.6   C142,479.7,158.3,509,158.5,510.2z"/>
	<path class="st4" d="M123.5,645.3l0.7,0c0.2-17.1,7.8-51.7,7.9-52c5.5-29.2,26.2-81.3,26.5-81.8c17-35.9,16.8-59.3,16.7-59.5   l-0.7,0c0,0.2,0.2,23.5-16.7,59.2c-0.2,0.5-21,52.7-26.5,82C131.3,593.5,123.7,628.2,123.5,645.3z"/>
	<path class="st4" d="M132.2,589.7l0.3-0.6c-0.7-0.4-74.6-36.1-89.5-67.6l-0.6,0.3C57.4,553.6,131.5,589.4,132.2,589.7z"/>
	<path class="st1" d="M849.9,541.8l1.1-0.9c8.4-4.9,6.3-17.3,14.7-22.2c6.1-3.4,13.1-5.5,19.4-9.6c15.7-10.2,30.1-20.7,48.8-25.3   c32.6-8,6.2,36.8,0.6,47.5c-5.3,10.7-7.6,20.2-18.5,27.1c-7.7,5-20.1,7.5-29.5,9c-10.6,1.8-27.7,8-37.7,2.9   C836.6,564.3,833.9,552.3,849.9,541.8z"/>
	<path class="st4" d="M834.9,566.4c45-8.8,110.3-77.9,110.9-78.7l-0.6-0.5c-0.7,0.7-68.8,72.9-113.6,78.9l0.1,0.8   C832.8,566.8,833.9,566.6,834.9,566.4z"/>
	<path class="st1" d="M712,539.1c16.6-7.2,42.5-6.8,57.4,1.3c9.5,4.4,14.6,6.5,24.5,9.3c10.7,2.6,12.9,6.1,20.7,14l1.2,2.1   c21.2,16.2-24.8,25.2-33.7,27.7c-20.1,5.5-44.2,14.1-64.4-0.7C703.1,581.5,689.7,548.9,712,539.1z"/>
	<path class="st1" d="M837.7,484.7c4.1-7.1,13-13.5,19.1-18.6c8.5-8.7,39.7-41.4,39-13.1c-0.4,14.2-51.9,75.2-62.8,59.3l-0.5-0.7   C832.7,501.4,832.4,493.6,837.7,484.7z"/>
	<path class="st1" d="M808.5,515.5c-2.3-23.8-26.4-30.9-45.5-36.5c-9.2-2.9-44.2-18-38.9,5.3c2.1,10.6,17.7,14.5,25.7,19.3   c8.9,5.3,15,12.7,23.1,18.2c12.5,7.7,28.2,7.8,35.8-5.4"/>
	<path class="st1" d="M816.6,469.3l0.6-0.9c3.2-3.8,44.1-54.8,44.9-34.6c0.6,6.9-18.3,22.4-22.9,27.2c-7.1,7.7-12,11-21,12.7   C817.2,472.3,815.8,473.7,816.6,469.3z"/>
	<path class="st1" d="M775.2,453.9c11.3,1.7,21.8,11.4,30.2,18.4l0.1,0.4c2.9,9.6-33.2-1.7-39.1-7.6   C760.2,456.8,763.2,452.3,775.2,453.9z"/>
	<path class="st1" d="M778.6,403.1c9.8-9.8,34.6,8.9,40.8,16.3c8.2,10.1,3.1,23.7-5.1,33.9l-0.3,0.5c-9.2,6.9-17.8-0.8-25.4-11.9   C783.2,434.3,770.9,411.6,778.6,403.1z"/>
	<path class="st4" d="M821.6,522.1c9.3-4.8,28.4-21.5,67.2-73.1c1.1-1.5,1.8-2.4,1.9-2.6l-0.6-0.5c-0.2,0.2-0.7,0.9-2,2.6   c-38.7,51.5-57.8,68.1-66.9,72.9L821.6,522.1z"/>
	<path class="st4" d="M818.5,518.4c0.9-0.2,1.4-0.4,1.5-0.5l-0.4-0.7c-0.1,0-7.9,3.9-28.1-9.7c-0.5-0.3-43.9-26.8-62.5-28.6   l-0.1,0.8c18.5,1.8,61.8,28.2,62.2,28.5C807,518.9,815.4,519,818.5,518.4z"/>
	<path class="st4" d="M813.5,479.6c5.6-8.8,44.5-46,44.9-46.3l-0.5-0.6c-1.6,1.5-39.4,37.6-45,46.5L813.5,479.6z"/>
	<path class="st4" d="M813.4,479.4l0.7-0.4c-0.4-0.7-9.4-6-18.4-10.6c-8.8-4.5-20.7-10-27.8-10.7l-0.1,0.8   C780.9,459.8,812.5,478.5,813.4,479.4z"/>
	<path class="st4" d="M855.4,627.1l0.7-0.4c-9.4-16.3-21.3-53.3-21.4-53.7c-11-30.7-20.3-91.7-20.4-92.3   c-3.8-43.5-17.1-65.5-17.2-65.7l-0.7,0.4c0.1,0.2,13.3,22.1,17.1,65.4c0.1,0.6,9.4,61.7,20.4,92.4C834,573.6,846,610.7,855.4,627.1   z"/>
	<path class="st4" d="M832.7,569.5l-0.1-0.8c-0.9,0.1-90.8,7.3-122.4-14.3l-0.4,0.6C741.6,576.8,831.8,569.6,832.7,569.5z"/>
	<g>
		<path class="st6" d="M666.5,608.1c32.7-64.6,29.6-192.8,24.4-224.2c-6.1-37.3-73.5-49-116.4-46.2c-42.9,2.8-43.2,26.7-43.2,26.7    S510.4,561.2,507,609.5C560,605.8,613.3,605.5,666.5,608.1z"/>
		<path class="st7" d="M675.8,415.1c-0.7,50.2-2.3,130.3-21.4,192.5c4,0.2,8,0.4,12.1,0.5c32.7-64.6,29.6-192.8,24.4-224.2    c-4.1-25.2-36.2-38.7-69.8-44C647,351,676.4,372.8,675.8,415.1z"/>
		<path class="st7" d="M575.7,606.6c13-45,16.9-105.2,12.7-158.6c-4.7-59.8-35.9-71.5-58.3-71.9c-4.5,42.9-20.2,192.3-23.1,233.5    C529.8,607.9,552.8,606.9,575.7,606.6z"/>
	</g>
	<g>
		<g>
			<path class="st8" d="M353.9,587.8l5.2,5.2c0,0-8.6,4.1-10.4,5.9c-1.8,1.8-1.1,10.4-3.9,10.4c-2.9,0-3-7.2-3-7.2     s-12.2,6.1-14.5,11.5c-2.3,5.4-12.6,2.9-13.6-7.7c-1.1-10.6,11.5-16.2,19-16.5c7.5-0.4,16.5-1.6,16.5-1.6H353.9z"/>
			<path class="st8" d="M486.4,429.7c0,0-23.3,0-22.3,34.1c1.1,34.1,2.5,56,2.5,56l-117.7,65.3l14.4,12.6l114.5-44.1     c0,0,20.5-35.9,20.5-37c0-1.1,4.7-33.7,3.6-38.4C500.8,473.5,486.4,429.7,486.4,429.7z"/>
		</g>
		<path class="st9" d="M509.1,366c0,0-49.6,19.1-54,49.5c-4.3,30.4,22,137.8-19.6,191.9h197.6c0,0,24.4-119.6,5.3-188.1    c-19.1-68.4-70.8-75.1-70.8-75.1L509.1,366z"/>
		<path class="st1" d="M475.8,196.7c0,0,60.8-23.9,92.8,16.7c32.1,40.7-5.5,101,11.7,112.9c17.2,12,46.8,38.3,56,73.2    c9.2,34.9,4.1,3.4-21.5-2.9c-25.6-6.2-52.4,11.7-62-7.9c-9.6-19.6-9.8-7.7-19.9-20.8c-10-13.2-2.4-25.4,8.9-45.2    c11.2-19.9,3.8-30.9-22.5-40.2c-26.3-9.3-30.9-27.8-32.1-34.5c-1.2-6.6-12.9,24.9-20.6,29.4c-7.7,4.5,17.9,43.8,30.9,49.3    c12.9,5.5,24.4,25.6,21.8,44.7c-2.6,19.1,12.7,63.8-14.4,44.2c-27-19.6-9.7-47.5-27.6-69.3c-17.9-21.8-41-34.2-35.1-58.9    c6-24.6,5-0.8,7.7-55.5C451.4,202,480.6,196.5,475.8,196.7z"/>
		<g>
			<path class="st7" d="M617.9,765.9c-7.1,0.1-13.7-1.8-20.1-4.7c-1.1-0.5-2.2-1-3.2-1.6c-0.9-0.5-0.9-0.9-0.2-1.6     c0.3-0.3,0.7-0.6,1.1-0.9c4.9-3.5,10.2-6.2,16-7.9c2.7-0.8,2.9-1.4,1-3.4c-5.9-6.4-9.9-13.9-12.7-22.1c-0.2-0.6-0.4-1.1-0.5-1.7     c-0.1-0.9,0.1-1.2,1-1.2c1.1,0.1,2.1,0.3,3.2,0.5c8.2,1.7,15.9,4.6,22.8,9.5c2,1.4,2.7,1.1,3-1.3c0.8-6.4,2.7-12.4,5.6-18.1     c1.2-2.3,1.5-2.4,3-0.2c4.2,6.1,7.5,12.8,8.7,20.1c2,11.9-1.5,22-11.1,29.4c-4.8,3.7-10.4,5-16.4,5.1     C618.8,765.9,618.3,765.9,617.9,765.9"/>
			<path class="st0" d="M524.1,819c0.6,0,1.2,0.1,1.8,0.1c1.6,0,2.1-0.6,1.9-2.2c-0.3-2.6-0.4-5.3-0.1-7.9c0.3-2.4,0.7-2.5,2.6-1.2     c2,1.4,3.7,3.1,5.1,5.1c0.2,0.3,0.4,0.6,0.7,0.9c0.9,1,1.5,1,2.4,0.1c0.8-0.7,1.5-1.5,2.3-2.3c0.7-0.7,1.5-1.4,2.4-1.9     c0.9-0.6,1.4-0.4,1.6,0.7c0.5,2.1,0.6,4.3,0.3,6.4c-0.4,2.8-1.3,5.4-2.9,7.8c-1,1.5-2.2,2.6-3.9,3.3c-4.1,1.7-8.1,1.6-11.9-0.6     c-2.5-1.4-4.6-3.3-6.4-5.6c-0.2-0.3-0.5-0.6-0.6-0.9c-0.3-0.6-0.1-1.1,0.5-1.2c0.7-0.2,1.4-0.3,2.1-0.4     C522.7,819.1,523.4,819.1,524.1,819C524.1,819,524.1,819,524.1,819"/>
			<path class="st0" d="M521.8,756.2c-2.8,0-5-2.2-5-5c0-2.9,2.1-5,5-5c2.9,0,5.2,2.2,5.1,5.1C526.8,754,524.6,756.2,521.8,756.2"/>
			<path class="st0" d="M704.8,749.7c0-2.9,2-5,4.9-5.1c2.8-0.1,5.1,2.2,5.1,4.9c0.1,2.9-2.2,5.2-5,5.2     C707,754.7,704.8,752.6,704.8,749.7"/>
			<path class="st0" d="M547.1,730c0,1.7-1.3,3.1-3,3.1c-1.6,0-2.9-1.3-2.9-3c0-1.7,1.2-3,2.9-3C545.7,727.1,547,728.3,547.1,730"/>
			<path class="st0" d="M507.3,715c1.7,0,3,1.2,3.1,2.9c0,1.7-1.4,3.1-3.1,3.1c-1.7,0-2.9-1.3-2.9-3     C504.4,716.2,505.6,715,507.3,715"/>
		</g>
		<g>
			<path class="st7" d="M194.9,723.6c-7.1,0.1-13.7-1.8-20.1-4.7c-1.1-0.5-2.2-1-3.2-1.6c-0.9-0.5-0.9-0.9-0.2-1.6     c0.3-0.3,0.7-0.6,1.1-0.9c4.9-3.5,10.2-6.2,16-7.9c2.7-0.8,2.9-1.4,1-3.4c-5.9-6.4-9.9-13.9-12.7-22.1c-0.2-0.6-0.4-1.1-0.4-1.7     c-0.1-0.9,0.1-1.2,1-1.2c1.1,0.1,2.1,0.3,3.2,0.5c8.2,1.7,15.9,4.6,22.8,9.5c2,1.4,2.7,1.1,3-1.3c0.8-6.4,2.7-12.4,5.6-18.1     c1.2-2.3,1.5-2.4,3-0.2c4.2,6.1,7.4,12.8,8.7,20.1c2,11.9-1.5,22-11.1,29.4c-4.8,3.7-10.4,5-16.4,5.1     C195.8,723.7,195.4,723.6,194.9,723.6"/>
			<path class="st0" d="M101.1,776.8c0.6,0,1.2,0.1,1.8,0.1c1.6,0,2.1-0.6,1.9-2.2c-0.3-2.6-0.4-5.3-0.1-7.9     c0.3-2.4,0.7-2.5,2.6-1.2c2,1.4,3.7,3.1,5.1,5.1c0.2,0.3,0.4,0.6,0.7,0.9c0.9,1,1.5,1,2.4,0.1c0.8-0.7,1.5-1.5,2.3-2.3     c0.7-0.7,1.5-1.4,2.4-1.9c0.9-0.6,1.4-0.4,1.6,0.7c0.5,2.1,0.6,4.3,0.3,6.4c-0.4,2.8-1.3,5.4-2.9,7.8c-1,1.5-2.2,2.6-3.9,3.3     c-4.1,1.7-8.1,1.6-11.9-0.6c-2.5-1.4-4.6-3.3-6.4-5.6c-0.2-0.3-0.5-0.6-0.6-0.9c-0.3-0.6-0.1-1.1,0.5-1.2     c0.7-0.2,1.4-0.3,2.1-0.4C99.7,776.9,100.4,776.9,101.1,776.8C101.1,776.8,101.1,776.8,101.1,776.8"/>
			<path class="st0" d="M98.8,714c-2.8,0-5-2.2-5-5c0-2.9,2.1-5,5-5c2.9,0,5.2,2.2,5.1,5.1C103.9,711.8,101.6,714,98.8,714"/>
			<path class="st0" d="M281.8,707.5c0-2.9,2-5,4.9-5.1c2.8-0.1,5.1,2.2,5.1,4.9c0.1,2.9-2.2,5.2-5,5.2     C284,712.5,281.8,710.3,281.8,707.5"/>
			<path class="st0" d="M124.1,687.8c0,1.7-1.3,3.1-3,3.1c-1.6,0-2.9-1.3-2.9-3c0-1.7,1.2-3,2.9-3     C122.7,684.9,124.1,686.1,124.1,687.8"/>
			<path class="st0" d="M84.3,672.7c1.7,0,3,1.2,3.1,2.9c0,1.7-1.4,3.1-3.1,3.1c-1.7,0-2.9-1.3-2.9-3     C81.4,674,82.6,672.7,84.3,672.7"/>
		</g>
		<path class="st8" d="M459,271.1c0,0,9,58.1,47,63.2c0,0,3.9,3.9,3.1,19.4c-0.9,15.4-0.9,12-0.9,12s11.8,3.6,23-2    c0,0,0.7-22.4,9.9-33.4c9.2-10.9,10.9-26,11.8-30.5c0.9-4.5,15-6,15.2-17.6c0.1-7-10-8.6-16.6,2.1c0,0-54.2-7.2-67.8-49.2    C483.6,235.2,478.6,255.2,459,271.1z"/>
		<path class="st9" d="M584.8,480.1c-10.1-16.8-19.5-34-28.5-51.4c-5.2-9.9-11.9-20.3-17.1-31.1c-9.6-7.9-16.5-19-19.1-31.3    c-1.8,0.2-3.6,0.3-5.5,0.3c-2.1,0-4.4-0.6-6.3-0.9c-5.9,2.4-49,21.4-53,49.7c-2,14.4,2.8,46,4,81.1c35.5,0.6,71-0.8,106.2-4.5    c8.2-1,16.5-2.1,24.7-3.3C588.3,485.9,586.5,483,584.8,480.1z"/>
		<path class="st8" d="M591.2,443.4c0,0-27.5,0-26.2,35c1.3,35,3,57.5,3,57.5L429.3,603l16.9,12.9l134.9-45.3c0,0,24.1-36.9,24.1-38    c0-1.1,5.5-34.6,4.2-39.4C608.2,488.4,591.2,443.4,591.2,443.4z"/>
		<g>
			<path class="st10" d="M498.7,625.6l-90.5-5.5l-0.4,6.9c0,0,38.8,4.7,40.1,4.5c1.3-0.2,45.2-2.5,45.2-2.5L498.7,625.6z"/>
			<polygon class="st10" points="412.4,650.2 498.6,627.7 375.9,620.2    "/>
			<path class="st11" d="M223.3,514.5c-0.9-4.5,2.1-8,6.7-7.7l155.9,9.4c4.6,0.3,9,4.2,9.9,8.7l21.8,117.4c0.8,4.5-2.2,8-6.8,7.7     l-154.4-9.4c-4.6-0.3-9.1-4.2-9.9-8.7L223.3,514.5z"/>
			<path class="st10" d="M221.9,514.4c-0.9-4.5,2.1-8,6.7-7.7l155.9,9.4c4.6,0.3,9,4.2,9.9,8.7l21.8,117.4c0.8,4.5-2.2,8-6.8,7.7     l-154.4-9.4c-4.6-0.3-9.1-4.2-9.9-8.7L221.9,514.4z"/>
			<path class="st11" d="M332.9,572.9c2.2,8.9-2.1,17.6-9.7,19.5c-7.6,1.9-15.6-3.8-17.8-12.6c-2.2-8.9,2.1-17.6,9.7-19.5     C322.7,558.3,330.7,564,332.9,572.9z"/>
			<polygon class="st11" points="415.1,647.9 498.7,625.6 498.6,627.7 412.4,650.2    "/>
		</g>
		<path class="st3" d="M638.5,419.3c-16.8-60.2-58.9-72.6-68.7-74.8c-1.3,0.1-2.6,0.2-3.8,0.3l-12.2,4.6    c-5.5,13.2-15.5,24-27.9,30.9c4.7,7.3,8.7,16.9,9.4,28.8c1.9,31.6,1.7,87.7,1.7,87.7c6.2-43.2,13.6-57,16.5-58.5    c2.9-1.4,6.5,25.4,3.1,47.9c-3.3,22.5-4,31.2,20,16.4c24-14.8,25.2,60.6,12.3,85.4c-3.1,5.9-7.5,12.7-11.6,19.4h56    C633.2,607.3,657.6,487.7,638.5,419.3z"/>
		<path class="st1" d="M540.1,331.6c0,0-33.1,37.5-19.1,64c10.7,20.2,45,16,76.3,10.1c31.3-6,42.8,52.4,43.3,66.8    c0.5,14.4,15.6,8.9,14.6-32.5c-1-41.4-32.3-92.1-56.2-104.3c-23.9-12.2-16.2-49.3-21.9-80.9c-5.7-31.6-4.7-33.5-27.6-48.8    c-22.9-15.3-77.9-13.2-88.2,0c-10.2,13.2,4.5,22.3,9.9,20.1c5.4-2.2,27.6-4.3,32.3-4.3c4.7,0,38.8,14,39.1,13.6    c0.4-0.4,25.8,28.4,25.8,28.4L575,278l-3.3,28.4l-4.2,17.9L540.1,331.6z"/>
		<polygon class="st12" points="582.9,540.4 593.9,506.7 585.3,543 471.7,607.3   "/>
		<polygon class="st9" points="552.8,506.8 549,525.5 444.2,595.8 548,523.6   "/>
		<path class="st8" d="M431.9,605c0,0-15.2,1.2-16.3,8.4c-1.1,7.2,3.7,14.1,11.3,12.3c7.6-1.9,15.1-12.9,15.1-12.9L431.9,605z"/>
		<g>
			<g>
				<g>
					<g>
						<path class="st4" d="M525.8,644.4c0,5-4.1,9.1-9.1,9.1h-29.6c-5,0-9.1-4.1-9.1-9.1v-44.3c0-5,4.1-9.1,9.1-9.1h29.6        c5,0,9.1,4.1,9.1,9.1V644.4z"/>
					</g>
				</g>
				<g class="st13">
					<g>
						<path class="st14" d="M519.7,649h-29.6c-5,0-9.1-4.1-9.1-9.1v-44.3c0-0.9,0.1-1.7,0.4-2.5c-2.1,1.7-3.4,4.2-3.4,7.1v44.3        c0,5,4.1,9.1,9.1,9.1h29.6c4.1,0,7.6-2.8,8.7-6.6C523.9,648.2,521.9,649,519.7,649z"/>
					</g>
				</g>
				<g>
					<g>
						<path class="st4" d="M537.6,643.1c-0.9,0-1.8-0.1-2.8-0.2h-13.4v-7.7l14.3,0c1.9,0.3,3.4,0.2,4.1-0.4c0.5-0.5,0.6-1.4,0.6-1.4        l0-0.2l0,0.1v-21.6c0-2.9-1.4-3.6-1.8-3.7H523v-7.7l16.5,0c3,0.4,8.6,3.4,8.6,11.4v21.6c0,0.9-0.1,4.6-3.1,7.2        C543.1,642.2,540.6,643.1,537.6,643.1z"/>
					</g>
				</g>
				<g>
					<g>
						<path class="st15" d="M521.8,597.1c0,1.7-1.3,3-3,3h-31.9c-1.7,0-3-1.4-3-3l0,0c0-1.7,1.3-3,3-3h31.9        C520.5,594,521.8,595.4,521.8,597.1L521.8,597.1z"/>
					</g>
				</g>
			</g>
			<g>
				<path class="st4" d="M564.5,646.4c-2.4,8.1-28.4,14.5-60.2,14.5c-31.8,0-57.8-6.4-60.2-14.5H564.5z"/>
			</g>
		</g>
		<g>
			<g>
				<path class="st16" d="M632.2,614.7h88c-4.2,3.5-6.9,8.8-6.9,14.7c0,5.9,2.7,11.2,6.9,14.7h-88c-1.2,0-2.1,1-2.1,2.2      s0.9,2.2,2.1,2.2h100.6c0,0,0.1,0,0.1,0c10.4-0.2,18.8-8.7,18.8-19.2c0-10.5-8.4-18.9-18.8-19.1c0,0-0.1,0-0.1,0H632.2      c-1.2,0-2.1,1-2.1,2.2C630.1,613.7,631,614.7,632.2,614.7z"/>
				<path class="st17" d="M733,644.1L733,644.1c7.9-0.3,14.2-6.7,14.2-14.7c0-7.9-6.3-14.4-14.2-14.7v0h-97.3v29.4H733z"/>
			</g>
			<g>
				<path class="st18" d="M615.6,576.3h88c-4.2,3.5-6.9,8.8-6.9,14.7c0,5.9,2.7,11.2,6.9,14.7h-88c-1.1,0-2.1,1-2.1,2.2      c0,1.2,0.9,2.2,2.1,2.2h100.7c0,0,0.1,0,0.1,0c10.4-0.2,18.8-8.7,18.8-19.2c0-10.4-8.4-18.9-18.8-19.1c0,0-0.1,0-0.1,0H615.6      c-1.1,0-2.1,1-2.1,2.2C613.6,575.3,614.5,576.3,615.6,576.3z"/>
				<path class="st17" d="M716.5,605.7L716.5,605.7c7.9-0.3,14.2-6.7,14.2-14.7c0-7.9-6.3-14.4-14.2-14.7v0h-97.3v29.4H716.5z"/>
			</g>
			<g>
				<rect x="596.6" y="648.8" class="st19" width="173.4" height="40.4"/>
				<path class="st20" d="M622.4,669c0,3.8-2.9,6.8-6.5,6.8c-3.6,0-6.5-3-6.5-6.8c0-3.8,2.9-6.8,6.5-6.8      C619.5,662.2,622.4,665.2,622.4,669z"/>
				<rect x="629.8" y="662.2" class="st20" width="105" height="13.6"/>
				<rect x="742.7" y="662.2" class="st20" width="5.6" height="13.6"/>
				<rect x="751.7" y="662.2" class="st20" width="5.6" height="13.6"/>
			</g>
		</g>
	</g>
</g>
<g id="Layer_2">
</g>
</svg>