<?xml version="1.0" encoding="UTF-8"?>
<svg version="1.1" viewBox="0 0 200.34 200.35" xmlns="http://www.w3.org/2000/svg">
<ellipse cx="100.12" cy="100.12" rx="100.12" ry="100.12" fill="#ffe680" stroke-miterlimit="4.2" stroke-width="0" style="paint-order:markers fill stroke"/>
<rect x="59.964" y="71.991" width="81.669" height="103.5" ry="7.6172" fill="#f8f8f8" stroke-miterlimit="4.2" stroke-width="0" style="paint-order:markers fill stroke"/>
<rect x="71.116" y="138.02" width="57.566" height="4.5002" ry="1.4103" stroke-miterlimit="4.2" stroke-width="0" style="paint-order:markers fill stroke"/>
<rect x="71.116" y="149.56" width="57.566" height="4.5002" ry="1.4103" stroke-miterlimit="4.2" stroke-width="0" style="paint-order:markers fill stroke"/>
<rect x="71.732" y="159.99" width="35.319" height="4.5002" ry="1.4103" stroke-miterlimit="4.2" stroke-width="0" style="paint-order:markers fill stroke"/>
<ellipse cx="101.47" cy="107.3" rx="25.185" ry="25.721" fill="#15bfd7" stroke-miterlimit="4.2" stroke-width="0" style="paint-order:markers fill stroke"/>
<rect x="83.828" y="75.284" width="28.546" height="2.3727" ry="1.1863" fill="#fc0" stroke-miterlimit="4.2" stroke-width="0" style="paint-order:markers fill stroke"/>
<ellipse cx="101.71" cy="116.7" rx="17.388" ry="9.242" stroke-miterlimit="4.2" stroke-width="0" style="paint-order:markers fill stroke"/>
<ellipse cx="101.37" cy="94.425" rx="7.1932" ry="6.0748" stroke-miterlimit="4.2" stroke-width="0" style="paint-order:markers fill stroke"/>
<path d="m44.901 17.324s7.4246 3.182 13.789 12.728c6.364 9.5459 25.138 45.232 25.138 45.232 0.07343 0.44057 7.8363 1.135 8.5555-0.04937 0.47236-0.77782-15.75-40-18.625-45s-15.009-21.485-15.009-21.485-14.947 7.0232-13.849 8.5741z" fill="none" stroke="#000" stroke-width="1px"/>
<path d="m58.473 9.2078c-2.6159 1.1855-5.1707 2.5184-7.6929 3.895-1.8789 1.0967-3.8682 2.0987-5.445 3.6225-0.26078 0.52098 0.50411 0.70754 0.81038 0.94907 5.9774 3.4081 10.71 8.6647 14.209 14.526 5.2721 8.7096 10.109 17.67 14.971 26.612 2.3949 4.4303 4.7635 8.8746 7.128 13.321 0.45717 0.34974 1.1334 0.06938 1.679 0.15917 2.2149-0.02952 4.4376 0.06622 6.6478-0.08373 0.52926-0.24418 0.01444-0.86355-0.05994-1.2473-4.2244-10.904-8.7026-21.71-13.376-32.429-1.3826-3.0388-2.6508-6.1459-4.3308-9.0368-3.9032-6.0614-8.1515-11.892-12.387-17.724-0.65883-0.83795-1.2215-1.7721-1.9593-2.538-0.064536-2.563e-4 -0.12975-0.031119-0.19421-0.025722z" stroke-miterlimit="4.2" stroke-width="0" style="paint-order:markers fill stroke"/>
<path d="m138.37 6.1722c2.7777 1.3017 4.4286 2.079 7.1068 3.5905 1.9951 1.2043 5.1692 2.9907 6.8436 4.6639 0.27691 0.57205-0.53528 0.7769-0.8605 1.0421-6.3471 3.7422-11.372 9.5141-15.087 15.95-5.5981 9.5635-10.734 19.403-15.897 29.22-2.543 4.8646-5.9018 9.7759-8.4126 14.658-0.48545 0.38403-0.39095 0.3418-0.97037 0.4404-2.8831 0.28009-4.6964 0.05709-7.0276-0.20131-0.56199-0.26812-0.0153-1.1357 0.0636-1.5571 4.4857-11.973 9.2408-23.839 14.204-35.609 1.4682-3.3367 2.8147-6.7484 4.5986-9.9228 4.1446-6.6556 8.6556-13.058 13.153-19.461 0.69958-0.9201 1.5034-1.9741 2.2868-2.8151 0.0685-2.811e-4 0 0-4e-5 1.1e-6z" stroke-miterlimit="4.2" stroke-width="0" style="paint-order:markers fill stroke"/>
<path d="m90.845 71.892c-0.5859 0.10139-1.1926 0.06439-1.7865 0.08995-2.0114 0.03683-4.0242-0.0053-6.035 0.05151-0.22082-0.02977-0.50206 0.10624-0.45148 0.36329 0.28039 0.62099 0.63235 1.2132 0.94229 1.8221 0.18598 0.30744 0.30813 0.66322 0.54207 0.93629 0.37267 0.18691 0.80801 0.19632 1.2124 0.2749 0.99453 0.17098 2.0067 0.10767 3.0107 0.12928 0.95406-0.01172 1.911 0.03441 2.8632-0.03302 0.30767-0.07359 0.66858-0.0909 0.90778-0.3197 0.18354-0.25354-0.02644-0.56029-0.07892-0.82428-0.25637-0.77166-0.50515-1.5489-0.81641-2.3-0.05949-0.11469-0.17903-0.19417-0.31018-0.19037z" stroke-miterlimit="4.2" stroke-width="0" style="paint-order:markers fill stroke"/>
</svg>
